<svg xmlns="http://www.w3.org/2000/svg" width="128pt" height="86pt" viewBox="0 0 128 86"><path style="stroke:none;fill-rule:evenodd;fill:rgb(0%,32.941176%,65.098039%);fill-opacity:0.101961" d="M1.48 35.016L34.336 73.68c2.727 3.21 7.789 2.82 9.996-.77L83.098 9.8C86.145 4.845 81.32-1.21 75.824.669l-71.62 24.44c-4.145 1.414-5.56 6.567-2.724 9.907"/><path style="stroke:none;fill-rule:evenodd;fill:rgb(0%,32.941176%,65.098039%);fill-opacity:0.0470588" d="M95.203 10.523l31.117 39.622c2.586 3.292 1.176 8.12-2.78 9.539l-69.563 24.93c-5.465 1.96-10.403-3.93-7.45-8.887L84.97 11.176c2.226-3.735 7.55-4.07 10.234-.653"/><path style="fill-rule:nonzero;fill:rgb(0%,0%,0%);fill-opacity:1;stroke-width:1;stroke-linecap:butt;stroke-linejoin:miter;stroke:rgb(96.078431%,96.078431%,96.078431%);stroke-opacity:1;stroke-miterlimit:4" d="M103.188 64.258c-.434-.246-.876-.496-1.333-.77l-3.386-2.031c1.574-1.676 2.754-3.71 3.219-5.746a8.08 8.08 0 00.214-1.797V45.34c0-3.903-2.933-7.422-7.48-8.969-3.973-1.351-7.918-.723-10.043 1.543-2.176.383-5.227 2.11-5.125 8.793.004.059.004.11.004.145v7.062c0 .578.07 1.184.21 1.793.466 2.04 1.645 4.074 3.223 5.75l-3.332 1.996a.68.68 0 00-.07.043c-.45.27-.89.52-1.316.762-1.274.722-2.512 1.426-3.473 2.41l-2.387-1.43c1.578-1.675 2.758-3.71 3.223-5.746.137-.605.21-1.21.21-1.797V49.12c0-3.902-2.933-7.422-7.476-8.965-3.972-1.355-7.918-.73-10.043 1.54-2.175.378-5.23 2.105-5.125 8.788 0 .063.004.11.004.149v7.062c0 .559.067 1.16.207 1.797.465 2.035 1.645 4.07 3.223 5.746l-2.383 1.43c-.957-.984-2.2-1.688-3.473-2.414-.43-.242-.875-.492-1.328-.766l-.035-.023c-.004 0-.008-.004-.012-.004l-3.343-2.004c1.578-1.676 2.758-3.707 3.222-5.746a8.126 8.126 0 00.207-1.793V45.34c0-3.899-2.933-7.418-7.472-8.965-3.977-1.355-7.922-.727-10.047 1.54-2.176.382-5.227 2.108-5.121 8.792v7.211c0 .586.07 1.191.21 1.789.466 2.04 1.645 4.074 3.223 5.75l-3.39 2.031c-.453.27-.899.524-1.324.766-2.711 1.539-5.27 2.996-5.27 7.23v7.614c0 .257 0 1.043.566 1.601.477.465 1.055.516 1.497.516h.183c.063-.004.129-.004.195-.004h23.911v1.664c0 .262 0 1.047.57 1.605.476.47 1.055.52 1.492.52.066 0 .129-.004.188-.004h1.683a1.296 1.296 0 100-2.594h-1.344v-7.136c0-2.621 1.145-3.375 3.965-4.973.043-.023.086-.05.13-.074.179-.102.362-.207.546-.317l2.164 1.403 2.227 1.441c.02.008.035.024.054.031.157.09.293.188.426.278.274.183.79.539 1.418.539.258 0 .535-.063.824-.219l.176.7-2.523 5.468c-.004.004-.004.008-.008.012-.215.445-.18.937.086 1.343l.883 1.504h-3.036a1.296 1.296 0 100 2.594h23.575c.058 0 .12.004.187.004.442 0 1.024-.05 1.5-.52.567-.558.567-1.343.567-1.605v-1.664h24.105c.059.004.121.004.184.004.441 0 1.02-.05 1.496-.516.566-.558.566-1.344.566-1.601v-7.614c0-4.234-2.555-5.687-5.266-7.226zm-57.153.383l-3.293 2.129c-.137.082-.258.16-.367.23l-.707-.75c-.012-.012-.023-.027-.04-.04l-1.179-1.25c.13-.042.258-.089.387-.136a12.387 12.387 0 002.887-1.57zM32.45 40.42c.36-.03.692-.21.91-.495 1.317-1.707 4.41-2.16 7.524-1.098 2.637.899 5.719 3.14 5.719 6.512v3.465h-.547c-1.278 0-2.102-.715-3.34-1.875-1.395-1.309-3.133-2.934-6.149-2.934h-2.324c-2.816 0-3.289 2.29-3.57 3.66-.32 1.574-.477 1.883-1.508 1.883h-.02v-2.687c0-.047 0-.11-.003-.188-.063-3.941 1.05-6.043 3.308-6.242zm-3.16 14.71a5.253 5.253 0 01-.144-1.211v-1.79h.02c3.233 0 3.765-2.57 4.046-3.952.328-1.59.465-1.59 1.035-1.59h2.32c1.993 0 3.098 1.035 4.375 2.234 1.29 1.207 2.75 2.575 5.118 2.575h.543v2.523c0 .39-.047.8-.145 1.215-.687 3.012-3.492 6.133-6.527 7.262-.778.292-1.43.43-2.055.43-.629 0-1.281-.138-2.063-.43-3.03-1.13-5.835-4.25-6.523-7.266zm9.973 12.348l-.422 1.644h-1.942l-.421-1.637 1.394-1.48zm-7.239-4.223a12.44 12.44 0 002.883 1.57c.133.047.262.094.39.137L33.372 67c-.11-.07-.23-.148-.367-.23l-3.293-2.13zm.036 13.84l.898 1.527H22.59v-7.137c0-2.625 1.144-3.379 3.957-4.976.223-.125.45-.254.68-.387l4.394 2.84c.016.012.035.02.05.031.157.09.294.184.427.274.293.203.804.554 1.422.554.257 0 .535-.062.824-.222l.176.695-2.524 5.469a1.33 1.33 0 00.063 1.332zm7.714 1.527h-3.808l-1.363-2.316 2.117-4.59h2.3l2.118 4.59zm6.579-3.355v3.355h-3.57l.894-1.527c.258-.406.281-.899.066-1.328l-2.527-5.473.18-.7c.289.165.57.227.832.227.62 0 1.132-.351 1.43-.554.132-.09.265-.184.421-.274.016-.012.031-.02.047-.031l4.395-2.84.675.387c1.02.578 1.817 1.047 2.422 1.535-2.707 1.535-5.265 2.992-5.265 7.223zM98.738 64.64l-3.285 2.129c-.14.082-.262.16-.371.234l-.707-.754-.047-.047-1.172-1.242c.125-.043.254-.09.387-.137 1-.375 1.973-.914 2.883-1.57zM85.156 40.42c.36-.03.692-.21.914-.5 1.313-1.702 4.403-2.155 7.516-1.097 2.64.903 5.727 3.145 5.727 6.516v3.46h-.551c-1.278 0-2.102-.706-3.34-1.87-1.395-1.305-3.133-2.934-6.152-2.934h-2.32c-2.821 0-3.29 2.29-3.571 3.66-.324 1.574-.477 1.88-1.504 1.88h-.027v-2.868c-.063-3.945 1.05-6.047 3.308-6.246zm-3.16 14.708a5.455 5.455 0 01-.148-1.215V52.13h.027c3.23 0 3.758-2.57 4.043-3.953.324-1.59.46-1.59 1.031-1.59h2.32c1.997 0 3.102 1.035 4.38 2.234 1.288 1.207 2.746 2.575 5.113 2.575h.55v2.52c0 .382-.05.788-.148 1.218-.687 3.012-3.492 6.133-6.531 7.265-.774.29-1.426.422-2.055.422-.629 0-1.277-.133-2.055-.425-3.039-1.133-5.843-4.254-6.527-7.266zm9.969 12.348l-.418 1.644h-1.945l-.418-1.637 1.394-1.476zm-7.235-4.223a12.284 12.284 0 002.883 1.57c.133.047.262.094.387.137L86.074 67c-.11-.07-.23-.148-.363-.23l-3.293-2.13zm-12.34 5.168l-3.288 2.133a8.295 8.295 0 00-.372.226l-1.925-2.035c.125-.047.254-.09.386-.137a12.16 12.16 0 002.883-1.574zM58.806 44.203c.36-.031.691-.215.914-.5 1.31-1.703 4.4-2.156 7.514-1.093 2.641.899 5.72 3.141 5.72 6.512v3.465h-.544c-1.277 0-2.101-.711-3.34-1.871-1.394-1.309-3.132-2.934-6.152-2.934h-2.32c-2.82 0-3.29 2.29-3.57 3.66-.325 1.57-.477 1.88-1.505 1.88h-.027v-2.688c0-.047 0-.113-.004-.188-.062-3.945 1.055-6.043 3.313-6.242zm-3.16 14.723a5.786 5.786 0 01-.149-1.23v-1.782h.027c3.23 0 3.758-2.57 4.043-3.953.325-1.59.461-1.59 1.032-1.59h2.32c1.996 0 3.102 1.035 4.379 2.234 1.289 1.208 2.746 2.575 5.113 2.575h.543v2.515c0 .395-.047.801-.14 1.22-.688 3.007-3.497 6.132-6.524 7.265-.789.289-1.445.425-2.062.425-.618 0-1.274-.136-2.059-.425-3.035-1.133-5.84-4.258-6.523-7.254zm9.968 12.332l-.418 1.644H63.25l-.418-1.64 1.395-1.473zm-5.894-.477a6.15 6.15 0 00-.364-.226l-3.289-2.133 2.309-1.387c.91.66 1.887 1.2 2.89 1.574.13.047.258.09.383.133zm6.406 11.621h-3.809l-1.363-2.32 2.117-4.586h2.305l2.113 4.59zm13.387 0h-10.38l.9-1.523c.25-.402.277-.89.066-1.324 0-.004-.004-.008-.004-.012l-2.52-5.469.176-.695c.29.16.57.223.828.223.617 0 1.129-.348 1.422-.547.133-.094.27-.188.426-.278.02-.007.039-.023.058-.03l4.387-2.845c.184.11.367.211.543.313l.14.082c2.817 1.598 3.958 2.351 3.958 4.969zm5.27-5.285l.882 1.504h-3.559v-3.355c0-4.23-2.562-5.684-5.27-7.223v-.004c.603-.484 1.403-.953 2.419-1.527.223-.13.45-.258.68-.39l4.39 2.839a.357.357 0 00.051.031c.156.09.293.184.426.274.273.187.793.543 1.426.543.257 0 .535-.059.82-.215l.176.699-2.524 5.473c-.222.445-.191.941.082 1.351zm7.695 1.504h-3.805l-1.363-2.32 2.113-4.586h2.305l2.117 4.586zm13.386 0h-10.38l.895-1.527a1.33 1.33 0 00.105-1.25.823.823 0 00-.035-.078l-2.523-5.473.176-.695c.289.16.57.222.828.222.62 0 1.136-.351 1.43-.554.132-.09.269-.184.425-.274.016-.008.031-.02.05-.031l4.388-2.84c.23.133.46.262.683.39 2.817 1.598 3.957 2.352 3.957 4.973zm0 0"/><path style="stroke:none;fill-rule:evenodd;fill:rgb(0%,32.941176%,65.098039%);fill-opacity:1" d="M63 0c9.39 0 17 7.61 17 17s-7.61 17-17 17-17-7.61-17-17S53.61 0 63 0zm0 0"/><path style="fill-rule:nonzero;fill:rgb(96.078431%,96.078431%,96.078431%);fill-opacity:1;stroke-width:1;stroke-linecap:butt;stroke-linejoin:miter;stroke:rgb(0%,32.941176%,65.098039%);stroke-opacity:1;stroke-miterlimit:4" d="M60.098 22.68c.234.199.53.308.836.308.039 0 .074-.004.109-.004.344-.03.664-.195.883-.46l8.27-9.864a1.296 1.296 0 10-1.988-1.664l-7.43 8.863-3.4-2.879a1.299 1.299 0 00-1.827.153 1.299 1.299 0 00.152 1.828zm0 0"/></svg>