<svg xmlns="http://www.w3.org/2000/svg" width="128pt" height="86pt" viewBox="0 0 128 86"><path style="stroke:none;fill-rule:evenodd;fill:rgb(0%,32.941176%,65.098039%);fill-opacity:0.101961" d="M1.484 35.426l32.95 39.12c2.738 3.247 7.812 2.852 10.027-.78L83.34 9.918c3.055-5.016-1.781-11.14-7.297-9.242L4.215 25.406c-4.156 1.43-5.574 6.645-2.73 10.02"/><path style="stroke:none;fill-rule:evenodd;fill:rgb(0%,32.941176%,65.098039%);fill-opacity:0.0470588" d="M95.48 10.648l31.207 40.086c2.594 3.332 1.18 8.215-2.792 9.653L54.133 85.609c-5.48 1.98-10.43-3.976-7.473-8.992l38.555-65.312c2.23-3.774 7.57-4.117 10.265-.657"/><path style="stroke:none;fill-rule:nonzero;fill:rgb(0%,0%,0%);fill-opacity:1" d="M99.676 24.695v-10.75a1.27 1.27 0 00-1.266-1.277h-6.883V1.278A1.27 1.27 0 0090.262 0h-50.64c-.7 0-1.267.57-1.267 1.277v11.391h-6.878c-.7 0-1.266.57-1.266 1.277v20.16H29.09c-3.274 0-5.942 2.692-5.942 5.997v39.902c0 3.305 2.668 5.996 5.942 5.996h70.109c3.274 0 5.942-2.691 5.942-5.996V30.668c0-3.145-2.41-5.727-5.465-5.973zM40.89 2.555h48.105v22.117H83.38V13.945a1.27 1.27 0 00-1.266-1.277H40.891zM25.684 80.004V40.102c0-1.899 1.527-3.442 3.406-3.442h4.957c.7 0 1.266-.57 1.266-1.277 0-.703-.567-1.278-1.266-1.278h-1.305V15.223h48.106v9.449H68.012c-3.278 0-5.942 2.687-5.942 5.996 0 1.895-1.53 3.437-3.41 3.437H39.113c-.699 0-1.265.575-1.265 1.278a1.27 1.27 0 001.265 1.277H58.66c3.274 0 5.942-2.687 5.942-5.992 0-1.898 1.53-3.441 3.41-3.441h21.164c1.879 0 3.41 1.543 3.41 3.441v49.336c0 1.898-1.527 3.441-3.406 3.441H29.09c-1.88 0-3.406-1.543-3.406-3.441zm76.921 0c0 1.898-1.527 3.441-3.406 3.441h-5.16a6.013 6.013 0 001.059-2.941h3.312c.7 0 1.266-.574 1.266-1.277V45.363a1.27 1.27 0 00-1.266-1.277c-.7 0-1.265.57-1.265 1.277V77.95h-2.028V30.668a6.003 6.003 0 00-3.59-5.504v-9.941h5.618v25.03a1.27 1.27 0 001.265 1.278c.7 0 1.266-.57 1.266-1.277V27.266a3.43 3.43 0 012.93 3.402zm0 0"/><path style="stroke:none;fill-rule:nonzero;fill:rgb(0%,32.941176%,65.098039%);fill-opacity:1" d="M39.414 21.863h30.387c.699 0 1.265-.574 1.265-1.277a1.27 1.27 0 00-1.265-1.277H39.414c-.7 0-1.266.57-1.266 1.277 0 .703.567 1.277 1.266 1.277zm0 6.387h17.383c.7 0 1.266-.574 1.266-1.277a1.27 1.27 0 00-1.266-1.278H39.414c-.7 0-1.266.57-1.266 1.278 0 .703.567 1.277 1.266 1.277zm47.098 22.219H62.71v-6.895h23.8zm0 0"/></svg>