<svg xmlns="http://www.w3.org/2000/svg" width="125pt" height="86pt" viewBox="0 0 125 86"><path style="stroke:none;fill-rule:evenodd;fill:rgb(0%,32.941176%,65.098039%);fill-opacity:0.101961" d="M1.453 35.61L33.63 73.847c2.672 3.175 7.629 2.789 9.789-.762l37.969-62.414c2.98-4.902-1.742-10.89-7.125-9.035L4.117 25.812c-4.057 1.4-5.445 6.494-2.664 9.798"/><path style="stroke:none;fill-rule:evenodd;fill:rgb(0%,32.941176%,65.098039%);fill-opacity:0.0470588" d="M93.242 11.387l30.477 39.187c2.531 3.254 1.152 8.028-2.727 9.434L52.863 84.664c-5.347 1.938-10.187-3.89-7.297-8.789L83.22 12.027c2.18-3.691 7.394-4.023 10.023-.64"/><path style="fill-rule:nonzero;fill:rgb(0%,0%,0%);fill-opacity:1;stroke-width:1;stroke-linecap:butt;stroke-linejoin:miter;stroke:rgb(96.078431%,96.078431%,96.078431%);stroke-opacity:1;stroke-miterlimit:4" d="M85.496 12.152c-3.695-4.855-8.926-8.437-14.73-10.09a1.622 1.622 0 00-2.004 1.133 1.64 1.64 0 001.12 2.02c10.716 3.05 18.2 13.039 18.2 24.297 0 8.832-4.672 17.136-12.195 21.676-.489.296-.79.828-.79 1.406v5.43h-3.894V29.3c0-.238-.05-.461-.14-.668l-6.493-14.66a1.62 1.62 0 00-1.48-.97 1.62 1.62 0 00-1.48.97l-6.493 14.66c-.09.203-.14.43-.14.668v28.722h-3.895v-5.43c0-.577-.3-1.109-.793-1.405-7.52-4.54-12.191-12.844-12.191-21.676 0-11.258 7.484-21.246 18.199-24.293a1.646 1.646 0 001.121-2.024 1.622 1.622 0 00-2.004-1.132c-5.805 1.652-11.035 5.234-14.73 10.09-3.813 5.015-5.832 11.019-5.832 17.359a28.68 28.68 0 003.796 14.281 28.513 28.513 0 009.188 9.71v4.52h-1.352c-1.757 0-3.191 1.45-3.191 3.227v6.66c0 1.778 1.434 3.227 3.191 3.227h1.438c.812 7.726 7.305 13.765 15.168 13.765 7.863 0 14.355-6.039 15.168-13.765h1.437c1.762 0 3.192-1.45 3.192-3.227v-6.66c0-1.777-1.43-3.227-3.192-3.227h-1.351v-4.52a28.55 28.55 0 009.187-9.71 28.676 28.676 0 003.793-14.281c0-6.34-2.015-12.344-5.828-17.36zm-17.539 18.79v27.081h-3.223V30.941zM63.09 18.655l3.988 9.008h-7.976zM58.223 30.94h3.265v27.082h-3.265zm4.867 50.684c-6.07 0-11.102-4.574-11.895-10.488h23.79C74.19 77.05 69.16 81.625 63.09 81.625zm16.55-13.766h-33.1V61.3h33.102zM31.285 29.512a1.63 1.63 0 00-1.625-1.64h-6.492a1.63 1.63 0 00-1.621 1.64 1.63 1.63 0 001.621 1.636h6.492a1.63 1.63 0 001.625-1.636zm0 0"/><path style="fill-rule:nonzero;fill:rgb(0%,32.941176%,65.098039%);fill-opacity:1;stroke-width:1;stroke-linecap:butt;stroke-linejoin:miter;stroke:rgb(96.078431%,96.078431%,96.078431%);stroke-opacity:1;stroke-miterlimit:4" d="M33.328 44.969l-5.621 3.277a1.65 1.65 0 00-.594 2.242 1.618 1.618 0 002.215.598l5.621-3.277a1.645 1.645 0 00.594-2.239 1.613 1.613 0 00-2.215-.601zm-5.621-34.196l5.621 3.278a1.614 1.614 0 002.215-.602 1.646 1.646 0 00-.594-2.238l-5.62-3.277a1.61 1.61 0 00-2.216.601 1.646 1.646 0 00.594 2.238zm75.343 17.098h-6.49c-.895 0-1.622.734-1.622 1.64a1.63 1.63 0 001.622 1.637h6.492c.898 0 1.625-.734 1.625-1.636 0-.907-.727-1.64-1.625-1.64zm-4.534 20.375l-5.622-3.277a1.619 1.619 0 00-2.218.601 1.645 1.645 0 00.593 2.239l5.622 3.277a1.618 1.618 0 002.218-.598 1.656 1.656 0 00-.593-2.242zM92.082 14.27a1.6 1.6 0 00.812-.22l5.622-3.277a1.653 1.653 0 00.593-2.238 1.615 1.615 0 00-2.218-.601l-5.622 3.277a1.646 1.646 0 00-.593 2.238c.3.528.847.82 1.406.82zM63.09 4.281a1.63 1.63 0 001.62-1.636v-.012C64.71 1.73 63.985 1 63.09 1c-.895 0-1.621.738-1.621 1.645a1.63 1.63 0 001.62 1.636zm0 0"/></svg>