<svg xmlns="http://www.w3.org/2000/svg" width="125pt" height="86pt" viewBox="0 0 125 86"><path style="stroke:none;fill-rule:evenodd;fill:rgb(0%,32.941176%,65.098039%);fill-opacity:0.101961" d="M1.445 34.219l32.086 37.785c2.664 3.137 7.606 2.758 9.762-.754L81.148 9.578c2.977-4.844-1.734-10.762-7.101-8.926L4.105 24.54c-4.046 1.379-5.43 6.418-2.66 9.68"/><path style="stroke:none;fill-rule:evenodd;fill:rgb(0%,32.941176%,65.098039%);fill-opacity:0.0470588" d="M92.973 10.285l30.39 38.719c2.524 3.219 1.145 7.937-2.718 9.324L52.71 82.691c-5.336 1.914-10.156-3.843-7.273-8.687L82.98 10.922c2.168-3.649 7.372-3.98 9.993-.637"/><path style="fill-rule:nonzero;fill:rgb(0%,0%,0%);fill-opacity:1;stroke-width:1;stroke-linecap:butt;stroke-linejoin:miter;stroke:rgb(96.078431%,96.078431%,96.078431%);stroke-opacity:1;stroke-miterlimit:4" d="M78.832 83.504a1.352 1.352 0 01-1.355-1.348c0-.746.593-1.347 1.34-1.347h.015a1.348 1.348 0 010 2.695zm0 0"/><path style="fill-rule:nonzero;fill:rgb(0%,0%,0%);fill-opacity:1;stroke-width:1;stroke-linecap:butt;stroke-linejoin:miter;stroke:rgb(96.078431%,96.078431%,96.078431%);stroke-opacity:1;stroke-miterlimit:4" d="M79.46 25.516a4.725 4.725 0 014.716 4.507l.004.211v11.918a4.723 4.723 0 016.023 1.77 4.715 4.715 0 016.738 1.352 4.67 4.67 0 012.735-.88 4.725 4.725 0 014.715 4.61l.003.11v22.214a1.297 1.297 0 01-.101.55l-1.95 4.884h.704c.746 0 1.347.605 1.347 1.347v5.395a1.349 1.349 0 11-2.695 0V79.46H74.746v4.043a1.349 1.349 0 11-2.695 0v-5.395c0-.742.601-1.347 1.347-1.347h.372l-4.24-7.421-.004-.012c-.02-.031-.035-.066-.05-.101l.054.113a1.403 1.403 0 01-.066-.133l-.035-.09c-.004-.015-.008-.031-.016-.047-.004-.02-.012-.043-.02-.066a1.869 1.869 0 01-.011-.063c-.004-.023-.012-.05-.016-.074 0-.015-.004-.031-.004-.047-.004-.023-.004-.047-.008-.07V48.442c0-.747.602-1.348 1.348-1.348a6.71 6.71 0 014.043 1.351v-18.21a4.721 4.721 0 014.715-4.72zm0 2.695a2.025 2.025 0 00-2.015 1.879l-.004.144v27.649c0 .746-.601 1.347-1.347 1.347a1.345 1.345 0 01-1.348-1.347v-4.047a4.06 4.06 0 00-2.695-3.816v18.293l4.824 8.449h22.562l2.262-5.657-.004-21.933v-.059c0-1.113-.906-2.02-2.02-2.02a2.023 2.023 0 00-2.019 2.02v.676c0 .746-.601 1.348-1.347 1.348a1.345 1.345 0 01-1.348-1.348v-2.023a2.026 2.026 0 00-2.024-2.024c-1.113 0-2.02.91-2.02 2.024v2.023a1.349 1.349 0 11-2.694 0v-3.371a2.026 2.026 0 00-2.024-2.023c-1.113 0-2.02.91-2.02 2.023v3.371c0 .746-.6 1.348-1.347 1.348a1.345 1.345 0 01-1.348-1.348V30.234a2.026 2.026 0 00-2.023-2.023zM29.317 2.418a1.346 1.346 0 010 1.906c-9.457 9.465-9.457 24.864 0 34.328a1.35 1.35 0 01-.953 2.305 1.36 1.36 0 01-.953-.394c-10.504-10.52-10.504-27.63 0-38.145a1.346 1.346 0 011.906 0zm36.215-.004c5.09 5.098 7.895 11.871 7.895 19.074 0 7.207-2.805 13.977-7.895 19.075a1.35 1.35 0 11-1.906-1.91c4.582-4.583 7.105-10.68 7.105-17.165 0-6.484-2.523-12.578-7.105-17.168a1.346 1.346 0 010-1.906 1.346 1.346 0 011.906 0zm-19.058.195c10.402 0 18.867 8.47 18.867 18.88 0 10.413-8.465 18.882-18.867 18.882-10.407 0-18.868-8.469-18.868-18.883 0-10.41 8.461-18.879 18.868-18.879zM32.18 5.277a1.346 1.346 0 010 1.907 20.105 20.105 0 00-5.922 14.304 20.091 20.091 0 005.922 14.305 1.35 1.35 0 01-.953 2.305 1.35 1.35 0 01-.954-.395 22.79 22.79 0 01-6.71-16.215 22.788 22.788 0 016.71-16.21 1.346 1.346 0 011.907 0zm30.492 0c8.933 8.938 8.933 23.485 0 32.426a1.35 1.35 0 11-1.906-1.91c7.882-7.887 7.882-20.719 0-28.61a1.346 1.346 0 010-1.906 1.346 1.346 0 011.906 0zm0 0"/><path style="fill-rule:nonzero;fill:rgb(0%,32.941176%,65.098039%);fill-opacity:1;stroke-width:1;stroke-linecap:butt;stroke-linejoin:miter;stroke:rgb(96.078431%,96.078431%,96.078431%);stroke-opacity:1;stroke-miterlimit:4" d="M46.473 5.305c-8.918 0-16.172 7.261-16.172 16.183 0 8.926 7.254 16.184 16.172 16.184 8.918 0 16.172-7.258 16.172-16.184 0-8.922-7.254-16.183-16.172-16.183zm0 0"/><path style="stroke:none;fill-rule:nonzero;fill:rgb(100%,100%,100%);fill-opacity:1" d="M46.816 20.203v-4.41c1.52.105 2.082.8 2.606.8.652 0 .957-.823.957-1.238 0-1.062-2.086-1.52-3.563-1.562v-.59c0-.258-.328-.5-.652-.5-.371 0-.629.242-.629.5v.633c-2.066.215-4.129 1.305-4.129 4.043 0 2.781 2.172 3.562 4.13 4.258v5.11c-2.22-.177-2.806-1.696-3.52-1.696-.543 0-1 .719-1 1.238 0 1.066 1.824 2.523 4.52 2.566v.672c0 .262.257.5.628.5.324 0 .652-.238.652-.5v-.738c2.344-.324 3.954-1.805 3.954-4.477 0-2.957-2.067-3.914-3.954-4.609zm-1.152-.414c-1.152-.434-2.086-.89-2.086-2.129 0-1.129.871-1.672 2.086-1.824zm1.02 7.414v-4.586c1.066.457 1.914 1.063 1.914 2.434 0 1.238-.739 1.933-1.914 2.152zm0 0"/></svg>