<svg width="639" height="370" xmlns="http://www.w3.org/2000/svg"><g fill="none" fill-rule="evenodd"><path d="M165.8 250.209h310.4v-48.418H165.8v48.418zM477.6 253H164.4c-.774 0-1.4-.625-1.4-1.396v-51.208c0-.77.626-1.396 1.4-1.396h313.2c.773 0 1.4.625 1.4 1.396v51.208c0 .77-.627 1.396-1.4 1.396zm-311.8 62.158h310.4v-15.316H165.8v15.316zM477.6 318H164.4a1.41 1.41 0 01-1.4-1.42v-18.16c0-.783.626-1.42 1.4-1.42h313.2c.773 0 1.4.637 1.4 1.42v18.16c0 .783-.627 1.42-1.4 1.42z" fill="#000"/><path d="M175.771 330.16h11.319l1.929-12.32h-15.056l1.808 12.32zm12.484 2.84h-13.66c-.677 0-1.253-.512-1.355-1.205l-2.225-15.163a1.46 1.46 0 01.317-1.138c.26-.313.64-.494 1.038-.494h18.26c.402 0 .783.184 1.043.5.26.318.374.737.31 1.148l-2.375 15.16c-.108.688-.68 1.192-1.353 1.192zm265.515-2.84h11.32l1.93-12.32h-15.058l1.808 12.32zm12.486 2.84h-13.662c-.677 0-1.253-.512-1.355-1.205l-2.223-15.163c-.06-.41.055-.825.317-1.138a1.35 1.35 0 011.037-.494h18.26c.402 0 .783.184 1.044.5.26.318.372.737.308 1.148l-2.374 15.16c-.107.688-.68 1.192-1.352 1.192zM160.11 261.832a.31.31 0 00-.308.312v34.712c0 .171.139.312.309.312h319.778c.17 0 .309-.14.309-.312v-34.712a.31.31 0 00-.309-.312H160.111zM479.89 300H160.11c-1.714 0-3.11-1.41-3.11-3.144v-34.712c0-1.734 1.396-3.144 3.11-3.144h319.78c1.714 0 3.11 1.41 3.11 3.144v34.712c0 1.734-1.396 3.144-3.11 3.144zm-288.083-49.825h105.386v-17.737c0-4.199-3.395-7.613-7.568-7.613h-90.251c-4.173 0-7.567 3.414-7.567 7.613v17.737zM298.597 253H190.403a1.408 1.408 0 01-1.404-1.412v-19.15c0-5.756 4.654-10.438 10.374-10.438h90.251c5.721 0 10.375 4.682 10.375 10.438v19.15c0 .78-.629 1.412-1.404 1.412zm45.21-2.825h105.386v-17.737c0-4.199-3.394-7.613-7.567-7.613h-90.252c-4.173 0-7.567 3.414-7.567 7.613v17.737zM450.597 253H342.403a1.408 1.408 0 01-1.404-1.412v-19.15c0-5.756 4.654-10.438 10.374-10.438h90.252c5.721 0 10.374 4.682 10.374 10.438v19.15c0 .78-.629 1.412-1.404 1.412z" fill="#000"/><path d="M478.89 312.017c1.157.088 2.43.166 3.639.166 2.287 0 4.023-.284 5.26-.866-.35-.658-.44-1.315-.265-1.964.485-1.79 2.718-2.616 6.163-3.365.94-.205 1.955-.4 2.992-.6.73-.14 1.472-.281 2.207-.432-1.7-6.862-4.086-16.493-6.262-25.173-2.7-10.828-4.58-18.24-5.154-20.335-1.627-5.985-7.074-6.631-9.34-6.631-.306 0-.494.014-.521.016-.04.004-.083.005-.122.005H163.709c-10.264 0-11.286 7.75-11.325 8.081a1.745 1.745 0 01-.023.14l-10.348 48.192c1.68.726 3.3 1.27 4.738 1.582 1.607.359 3.047.44 4.21.241.85-.17.874-.24 1.035-.692.238-.667.594-1.67 2.08-2.562.756-.564 1.889-.838 3.455-.838 1.06 0 1.987.127 2.39.194a50.22 50.22 0 012.386.247v-7.288h-2.152a3.124 3.124 0 01-3.114-3.127v-34.527a3.124 3.124 0 013.114-3.127H480.33a3.124 3.124 0 013.115 3.127v34.527a3.124 3.124 0 01-3.115 3.127h-1.44v11.882zm3.639 2.983c-1.796 0-3.66-.155-5.157-.279a1.408 1.408 0 01-1.288-1.404v-14.59c0-.778.629-1.409 1.403-1.409h2.843a.31.31 0 00.309-.31v-34.527a.31.31 0 00-.309-.31H160.155a.31.31 0 00-.308.31v34.527c0 .17.138.31.308.31h3.554c.776 0 1.403.631 1.403 1.409v10.308a1.409 1.409 0 01-1.603 1.395 57.255 57.255 0 00-3.864-.452 1.323 1.323 0 01-.123-.015 12.876 12.876 0 00-1.99-.164c-1.178 0-1.69.206-1.788.286a1.471 1.471 0 01-.179.123c-.665.387-.758.65-.928 1.123-.364 1.023-.909 2.06-3.166 2.512-1.629.282-3.364.18-5.322-.259-1.947-.423-4.083-1.178-6.342-2.241a1.41 1.41 0 01-.775-1.573l10.578-49.261c.166-1.101 1.95-10.487 14.1-10.487h313.723a9.77 9.77 0 01.697-.022c2.27 0 9.85.627 12.046 8.702.58 2.114 2.464 9.549 5.17 20.395 2.291 9.145 4.817 19.345 6.528 26.254l.085.34c.09.368.03.757-.168 1.08a1.402 1.402 0 01-.887.635c-1.21.272-2.471.514-3.697.75-1.015.194-2.006.385-2.925.585-2.824.614-3.706 1.093-3.98 1.32.07.108.21.291.49.548a1.41 1.41 0 01-.02 2.091c-1.762 1.569-4.38 2.3-8.243 2.3z" fill="#000"/><path d="M494.806 323.19h4.236v-15.635c-.804.165-1.618.322-2.418.474-.619.12-1.228.235-1.818.354v14.807zm120.151 0h4.237v-72.38H494.806v28.402a7498.37 7498.37 0 014.236 16.965v-39.223c0-.776.628-1.405 1.403-1.405h113.11c.775 0 1.402.63 1.402 1.405v66.236zm5.64 2.81h-7.043c-.774 0-1.402-.63-1.402-1.405V258.36H501.847v66.236c0 .776-.628 1.405-1.402 1.405h-7.042c-.775 0-1.403-.63-1.403-1.405v-17.354c0-.662.46-1.234 1.105-1.373.941-.205 1.955-.4 2.993-.598.728-.14 1.47-.282 2.205-.432-1.7-6.845-4.087-16.451-6.26-25.11a1.465 1.465 0 01-.043-.343v-29.98c0-.776.628-1.405 1.403-1.405h127.194c.775 0 1.403.63 1.403 1.405v75.19c0 .776-.628 1.405-1.403 1.405z" fill="#000"/><path d="M501.808 307.238h110.384v-23.476H501.808v23.476zM613.596 310H500.404a1.393 1.393 0 01-1.404-1.381v-26.238c0-.762.629-1.381 1.404-1.381h113.192c.775 0 1.404.619 1.404 1.381v26.238c0 .762-.629 1.381-1.404 1.381zm-68.815-43.854h24.438v-1.291H544.78v1.291zM570.61 269h-27.218c-.768 0-1.391-.64-1.391-1.427v-4.146c0-.788.623-1.427 1.39-1.427h27.22c.767 0 1.39.64 1.39 1.427v4.146c0 .788-.623 1.427-1.39 1.427z" fill="#000"/><path d="M544.781 293.146h24.438v-1.292H544.78v1.292zM570.61 296h-27.218c-.768 0-1.391-.64-1.391-1.427v-4.146c0-.789.623-1.427 1.39-1.427h27.22c.767 0 1.39.638 1.39 1.427v4.146c0 .788-.623 1.427-1.39 1.427zm7.204-72.224v14.81c0 .352.289.638.643.638h16.034a.653.653 0 00.65-.637v-4.394c0-.766.63-1.388 1.407-1.388 2.006 0 3.638-1.609 3.638-3.587 0-1.98-1.632-3.591-3.638-3.591a1.398 1.398 0 01-1.406-1.388v-.463h-17.328zM594.491 242h-16.034c-1.906 0-3.457-1.531-3.457-3.413v-16.199c0-.766.63-1.388 1.407-1.388h20.141c.777 0 1.407.622 1.407 1.388v.615c2.883.636 5.045 3.18 5.045 6.215 0 3.032-2.162 5.576-5.045 6.21v3.159c0 1.882-1.555 3.413-3.464 3.413zm12.113 4h-39.208c-.77 0-1.396-.672-1.396-1.5s.625-1.5 1.396-1.5h39.208c.77 0 1.396.672 1.396 1.5s-.625 1.5-1.396 1.5m-17.84-28c-.466 0-.919-.253-1.168-.705-4.922-8.94-1.822-14.437.914-19.288 2.505-4.442 4.484-7.95.738-13.829-.411-.645-.242-1.515.377-1.944a1.313 1.313 0 011.866.393c4.676 7.34 1.841 12.366-.66 16.801-2.594 4.6-5.044 8.944-.9 16.472.37.672.147 1.529-.498 1.914-.211.127-.44.186-.669.186" fill="#000"/><path d="M584.13 216c-.592 0-1.156-.312-1.404-.836-2.997-6.307-1.46-10.565-.104-14.322 1.3-3.6 2.326-6.442-.326-10.79-.408-.67-.139-1.51.598-1.88.74-.368 1.667-.126 2.075.542 3.294 5.402 1.9 9.257.554 12.987-1.303 3.61-2.534 7.022.008 12.37.332.701-.024 1.514-.8 1.817a1.666 1.666 0 01-.602.112m-63.345 32.175h23.432v-.978c-11.25-6.312-9.699-31.674-9.079-38.372h-5.274c.62 6.698 2.17 32.06-9.079 38.372v.978zM545.608 251h-26.216a1.403 1.403 0 01-1.392-1.412v-3.263c0-.557.323-1.062.824-1.29 11.825-5.368 8.15-37.132 8.11-37.451a1.425 1.425 0 01.34-1.108 1.385 1.385 0 011.043-.476h8.366c.399 0 .778.174 1.043.476.264.303.387.707.34 1.108-.04.319-3.715 32.083 8.11 37.452.501.227.824.732.824 1.289v3.263c0 .78-.624 1.412-1.392 1.412z" fill="#000"/><path d="M507.784 206.17h50.432v-31.34h-50.432v31.34zm51.824 2.83h-53.216a1.404 1.404 0 01-1.392-1.415v-34.17c0-.782.624-1.415 1.392-1.415h53.216c.768 0 1.392.633 1.392 1.415v34.17c0 .782-.624 1.415-1.392 1.415z" fill="#000"/><path d="M521.5 225c-.828 0-1.5-.639-1.5-1.426v-16.148c0-.788.672-1.426 1.5-1.426s1.5.638 1.5 1.426v16.148c0 .787-.672 1.426-1.5 1.426M20.806 323.19h4.236v-66.236c0-.776.629-1.405 1.403-1.405h113.119c.775 0 1.403.63 1.403 1.405v44.36l4.227-19.634v-30.87H20.806v72.38zm120.16 0h4.228v-10.013a30.764 30.764 0 01-4.227-1.508v11.521zm5.631 2.81h-7.033c-.774 0-1.403-.63-1.403-1.405V258.36H27.848v66.236c0 .776-.627 1.405-1.403 1.405h-7.042c-.775 0-1.403-.63-1.403-1.405v-75.19c0-.776.628-1.405 1.403-1.405h127.194c.775 0 1.403.63 1.403 1.405v32.424c0 .1-.01.199-.032.296l-5.811 26.996c1.68.726 3.3 1.268 4.738 1.58a1.403 1.403 0 011.105 1.373v12.521c0 .776-.628 1.405-1.403 1.405z" fill="#000"/><path d="M27.808 307.238h110.384v-23.476H27.808v23.476zM139.596 310H26.404A1.393 1.393 0 0125 308.619v-26.238c0-.762.629-1.381 1.404-1.381h113.192c.776 0 1.404.619 1.404 1.381v26.238c0 .762-.628 1.381-1.404 1.381zm-68.815-43.854H95.22v-1.291H70.78v1.291zM96.61 269H69.391c-.769 0-1.391-.64-1.391-1.427v-4.146c0-.788.622-1.427 1.39-1.427h27.22c.768 0 1.39.64 1.39 1.427v4.146c0 .788-.622 1.427-1.39 1.427z" fill="#000"/><path d="M70.781 293.146H95.22v-1.292H70.78v1.292zM96.61 296H69.391c-.769 0-1.391-.64-1.391-1.427v-4.146c0-.789.622-1.427 1.39-1.427h27.22c.768 0 1.39.638 1.39 1.427v4.146c0 .788-.622 1.427-1.39 1.427zm-1.826-47.825h23.432v-.978c-11.25-6.312-9.699-31.674-9.079-38.372h-5.274c.62 6.698 2.17 32.06-9.079 38.372v.978zM119.608 251H93.392c-.77 0-1.392-.633-1.392-1.412v-3.263c0-.557.323-1.062.823-1.29 11.825-5.368 8.15-37.132 8.112-37.451a1.425 1.425 0 01.34-1.108 1.385 1.385 0 011.042-.476h8.366c.399 0 .778.174 1.043.476.264.303.387.707.34 1.108-.04.319-3.714 32.083 8.11 37.452.501.227.824.732.824 1.289v3.263c0 .78-.623 1.412-1.392 1.412z" fill="#000"/><path d="M80.784 206.17h50.433v-31.34H80.784v31.34zm51.824 2.83H79.392c-.77 0-1.392-.633-1.392-1.415v-34.17c0-.782.623-1.415 1.392-1.415h53.216c.77 0 1.392.633 1.392 1.415v34.17c0 .782-.623 1.415-1.392 1.415z" fill="#000"/><path d="M117.5 225c-.829 0-1.5-.639-1.5-1.426v-16.148c0-.788.671-1.426 1.5-1.426s1.5.638 1.5 1.426v16.148c0 .787-.671 1.426-1.5 1.426m-74.682 23.204h20.349l-2.107-47.408H45.008z" fill="#000"/><path d="M64.624 251a.06.06 0 00-.018 0h-23.23a1.37 1.37 0 01-.996-.433 1.414 1.414 0 01-.379-1.03l2.32-50.205A1.385 1.385 0 0143.695 198h18.68c.736 0 1.342.587 1.375 1.335l2.22 49.975c.02.094.03.192.03.292 0 .772-.615 1.398-1.376 1.398z" fill="#0054A6"/><path d="M53 146.807a7.037 7.037 0 00-2.956.637 7.155 7.155 0 00-4.215 6.066c-.006.134-.012.298-.012.466 0 .13-.001.25.005.38.14 9.97 5.256 14.975 7.183 16.51 1.948-1.531 7.03-6.476 7.17-16.463.008-.176.008-.298.008-.427a7.23 7.23 0 00-4.461-6.638 7.125 7.125 0 00-2.722-.53M53 174a1.41 1.41 0 01-.729-.203c-.37-.223-9.072-5.63-9.264-19.355-.007-.126-.007-.291-.007-.466a9.967 9.967 0 015.873-9.09c2.448-1.125 5.398-1.183 7.921-.148 3.502 1.438 5.927 4.8 6.18 8.563a10.427 10.427 0 01.017 1.19c-.191 13.676-8.892 19.083-9.262 19.306A1.41 1.41 0 0153 174" fill="#000"/><path d="M52.5 160c-.829 0-1.5-.643-1.5-1.437v-7.126c0-.794.671-1.437 1.5-1.437s1.5.643 1.5 1.437v7.126c0 .794-.671 1.437-1.5 1.437m9.684-7.065c4.762 3.486 9.239 4.232 12.197 4.232.69 0 1.265-.042 1.696-.09.294-2.47.385-9.606-6.624-16.823-.111-.12-.203-.21-.295-.302a7.172 7.172 0 00-5.11-2.12 7.172 7.172 0 00-5.105 2.116 7.164 7.164 0 00-2.105 5.396 10.146 10.146 0 015.346 7.591M74.381 160c-3.496 0-8.833-.899-14.404-5.18a1.419 1.419 0 01-.55-1.03 7.276 7.276 0 00-4.461-6.196 1.415 1.415 0 01-.863-1.11c-.45-3.17.584-6.283 2.84-8.539A9.979 9.979 0 0164.048 135a9.977 9.977 0 017.106 2.945c.113.111.23.229.347.355 9.612 9.895 7.28 19.93 7.176 20.352a1.415 1.415 0 01-1.036 1.036c-.129.033-1.323.312-3.261.312" fill="#000"/><path d="M67.548 149c-.372 0-.744-.141-1.028-.425l-5.094-5.096a1.451 1.451 0 010-2.054 1.454 1.454 0 012.054 0l5.095 5.096A1.454 1.454 0 0167.548 149m-38.626 8.075c.433.05 1.013.093 1.71.093 3.033 0 7.622-.784 12.476-4.453a10.024 10.024 0 015.058-7.465 7.165 7.165 0 00-2.11-5.304 7.17 7.17 0 00-5.105-2.114 7.17 7.17 0 00-5.106 2.114c-.094.094-.186.186-.28.286-7.024 7.232-6.936 14.368-6.643 16.843m1.71 2.925c-1.948 0-3.147-.283-3.277-.315a1.415 1.415 0 01-1.034-1.036c-.104-.422-2.435-10.455 7.195-20.37.097-.105.212-.22.327-.335A9.98 9.98 0 0140.951 135a9.976 9.976 0 017.106 2.944 9.991 9.991 0 012.86 8.392 1.416 1.416 0 01-.82 1.108 7.208 7.208 0 00-4.228 6.109c-.026.4-.22.77-.534 1.02C39.67 159.058 34.212 160 30.632 160" fill="#000"/><path d="M37.452 150a1.455 1.455 0 01-1.027-2.48l5.096-5.094a1.452 1.452 0 112.053 2.053l-5.095 5.096a1.448 1.448 0 01-1.027.425M52.5 201c-.829 0-1.5-.637-1.5-1.423v-27.154c0-.786.671-1.423 1.5-1.423s1.5.637 1.5 1.423v27.154c0 .786-.671 1.423-1.5 1.423" fill="#000"/><path d="M49.556 201c-.67 0-1.27-.46-1.411-1.129l-9.115-43.165a1.417 1.417 0 011.12-1.675 1.436 1.436 0 011.705 1.1l9.115 43.164a1.418 1.418 0 01-1.12 1.676 1.48 1.48 0 01-.294.029m6.864 0c-.097 0-.194-.01-.292-.03a1.4 1.4 0 01-1.098-1.657l9.165-43.2c.16-.757.91-1.24 1.677-1.084a1.4 1.4 0 011.098 1.658l-9.164 43.2c-.14.66-.73 1.113-1.386 1.113" fill="#000"/><path d="M46.277 246h-.052c-.704-.032-1.252-.687-1.224-1.467l1.448-40.178c.027-.779.62-1.393 1.325-1.353.704.03 1.252.686 1.225 1.465l-1.448 40.18c-.027.758-.593 1.353-1.274 1.353" fill="#FFF"/><path d="M218.803 132.186h197.394V25.813H218.803v106.373zM417.599 135H217.4c-.774 0-1.401-.63-1.401-1.407V24.407c0-.778.627-1.407 1.401-1.407h200.2c.773 0 1.401.63 1.401 1.407v109.186c0 .778-.628 1.407-1.401 1.407z" fill="#000"/><path d="M230.805 120.211h174.39V37.79h-174.39v82.422zM406.598 123H229.402a1.398 1.398 0 01-1.402-1.394V36.394c0-.77.628-1.394 1.402-1.394h177.196c.774 0 1.402.625 1.402 1.394v85.212c0 .77-.628 1.394-1.402 1.394z" fill="#000"/><path d="M229.402 95a1.4 1.4 0 01-1.354-1.032c-.2-.741.245-1.503.993-1.701l48.184-12.74c.415-.11.86-.025 1.204.23l7.071 5.256 38.845-13.332a1.416 1.416 0 011.213.141l10.23 6.47L373.6 54.22a1.416 1.416 0 011.46-.033l8.343 4.786 8.108-2.59a1.408 1.408 0 011.583.532l14.655 20.981a1.38 1.38 0 01-.355 1.934 1.412 1.412 0 01-1.951-.352L391.38 59.346l-7.71 2.462a1.41 1.41 0 01-1.134-.12l-8.14-4.67-37.849 24.095c-.46.293-1.05.294-1.513.002l-10.413-6.588-38.909 13.354a1.415 1.415 0 01-1.3-.2l-7.122-5.294-47.526 12.566a1.445 1.445 0 01-.363.047" fill="#000"/><path d="M319.593 77c-.27 0-.543-.078-.783-.239l-14.124-9.511-12.476 4.023a1.408 1.408 0 01-1.015-.06l-24.59-11.296-36.785 11.361a1.405 1.405 0 01-1.758-.934 1.413 1.413 0 01.93-1.763l37.298-11.518a1.4 1.4 0 01.999.065l24.58 11.292 12.605-4.064c.409-.132.857-.07 1.214.17l14.69 9.892c.644.434.816 1.31.383 1.958-.27.405-.716.624-1.168.624m58.006 4c-.302 0-.606-.1-.863-.309l-11.2-9.095a1.49 1.49 0 01-.238-2.039 1.366 1.366 0 011.965-.248l10.125 8.222 6.365-8.003a1.366 1.366 0 011.715-.37l13.766 7.262c.69.364.964 1.237.613 1.952-.35.715-1.192 1-1.882.636l-12.766-6.733-6.52 8.197a1.38 1.38 0 01-1.08.528m-77.259 26a1.43 1.43 0 01-1.083-.487l-3.689-4.272-6.819 2.862c-.351.147-.75.15-1.105.01l-3.355-1.334-8.005 1.415a1.459 1.459 0 01-1.007-.187l-6.564-3.977-4.18 3.815a1.45 1.45 0 01-1.515.266l-5.66-2.274h-9.067c-.217 0-.432-.048-.627-.14l-1.306-.624-4.09 1.56a1.465 1.465 0 01-1.3-.128l-2.19-1.394-3.99 1.523a1.46 1.46 0 01-1.024.006l-4.864-1.784c-.724-.265-1.084-1.039-.806-1.728.277-.69 1.088-1.037 1.812-.769l4.35 1.596 4.165-1.59a1.46 1.46 0 011.298.13l2.191 1.393 3.99-1.523a1.47 1.47 0 011.149.046l1.573.75h9.02c.186 0 .371.036.543.106l5.074 2.037 4.31-3.932a1.452 1.452 0 011.721-.163l7.026 4.257 7.873-1.39c.266-.047.544-.02.795.08l3.185 1.267 7.242-3.04a1.447 1.447 0 011.648.375l3.75 4.344 5.631-1.79c.295-.094.614-.092.907.006l5.512 1.84 5.633-4.18c.42-.31.988-.367 1.466-.15 2.612 1.192 5.814 2.537 6.6 2.707.673-.113 3.935-1.258 6.608-2.277a1.453 1.453 0 011.477.264l3.993 3.554 8.81-3.796a1.455 1.455 0 011.534.242l3.811 3.393 6.851-4.967a1.46 1.46 0 011.557-.09l5.763 3.219 4.171-1.797a1.469 1.469 0 011.204.024l4.26 2.03 3.061-1.948c.62-.392 1.454-.256 1.9.312l1.997 2.539 11.467-3.026a1.44 1.44 0 011.439.418l2.978 3.314 6.451-3.598c.664-.372 1.525-.16 1.918.48.39.638.166 1.457-.503 1.83l-7.461 4.162a1.45 1.45 0 01-1.773-.285l-3.16-3.516-11.53 3.044a1.438 1.438 0 01-1.496-.487l-1.775-2.258-2.636 1.676a1.46 1.46 0 01-1.405.084l-4.39-2.094-4.223 1.82a1.464 1.464 0 01-1.286-.066l-5.579-3.115-7.044 5.107a1.453 1.453 0 01-1.805-.087l-3.992-3.554-8.811 3.795a1.454 1.454 0 01-1.534-.24l-4.026-3.585c-2.789 1.05-5.955 2.16-6.86 2.16-.78 0-3.13-.88-6.987-2.619l-5.554 4.121c-.376.28-.875.356-1.325.207l-5.78-1.931-6.09 1.937a1.462 1.462 0 01-.444.069M336.5 46.792a6.716 6.716 0 00-6.708 6.708 6.716 6.716 0 006.708 6.708 6.716 6.716 0 006.708-6.708 6.716 6.716 0 00-6.708-6.708m0 16.208c-5.238 0-9.5-4.262-9.5-9.5s4.262-9.5 9.5-9.5 9.5 4.262 9.5 9.5-4.262 9.5-9.5 9.5" fill="#000"/><path d="M334.606 52h-30.212c-.77 0-1.394-.671-1.394-1.5s.624-1.5 1.394-1.5h30.212c.77 0 1.394.671 1.394 1.5s-.625 1.5-1.394 1.5m-1.97 5h-12.272c-.753 0-1.364-.671-1.364-1.5s.61-1.5 1.364-1.5h12.272c.753 0 1.364.671 1.364 1.5s-.61 1.5-1.364 1.5m52.961-8h-26.194c-.774 0-1.403-.671-1.403-1.5s.629-1.5 1.403-1.5h26.194c.774 0 1.403.671 1.403 1.5s-.629 1.5-1.403 1.5m-15.992-5h-17.21c-.77 0-1.395-.671-1.395-1.5s.625-1.5 1.395-1.5h17.21c.77 0 1.395.671 1.395 1.5s-.625 1.5-1.395 1.5m-85.99 0h-36.23c-.766 0-1.385-.671-1.385-1.5s.62-1.5 1.385-1.5h36.23c.766 0 1.385.671 1.385 1.5s-.62 1.5-1.385 1.5m122.983 72H229.402c-.774 0-1.402-.671-1.402-1.5s.628-1.5 1.402-1.5h177.196c.774 0 1.402.671 1.402 1.5s-.628 1.5-1.402 1.5M172.5 191c-.829 0-1.5-.63-1.5-1.405V1.405c0-.777.671-1.405 1.5-1.405s1.5.628 1.5 1.405v188.19c0 .776-.671 1.405-1.5 1.405m296 0c-.828 0-1.5-.63-1.5-1.405V1.405c0-.777.672-1.405 1.5-1.405s1.5.628 1.5 1.405v188.19c0 .776-.672 1.405-1.5 1.405M9.625 318h-8.25C.615 318 0 317.328 0 316.5s.615-1.5 1.375-1.5h8.25c.76 0 1.375.672 1.375 1.5s-.615 1.5-1.375 1.5m118.977 0H35.398c-.773 0-1.398-.672-1.398-1.5s.625-1.5 1.398-1.5h93.204c.773 0 1.398.672 1.398 1.5s-.625 1.5-1.398 1.5m472.993 0h-90.19c-.776 0-1.405-.672-1.405-1.5s.63-1.5 1.405-1.5h90.19c.776 0 1.405.672 1.405 1.5s-.63 1.5-1.405 1.5m36.01 0h-7.21c-.77 0-1.395-.672-1.395-1.5s.625-1.5 1.395-1.5h7.21c.77 0 1.395.672 1.395 1.5s-.625 1.5-1.395 1.5M79.4 370c-.173 0-.348-.032-.52-.1a1.421 1.421 0 01-.78-1.842l6.802-17.168a1.4 1.4 0 011.3-.89h459.034a1.4 1.4 0 011.252.778l8.363 16.766c.346.7.07 1.55-.622 1.901a1.396 1.396 0 01-1.88-.627l-7.975-15.988H87.151l-6.448 16.28c-.22.554-.746.89-1.302.89" fill="#000"/></g></svg>